<?xml version="1.0" encoding="UTF-8"?>
<svg id="Laag_1" xmlns="http://www.w3.org/2000/svg" viewBox="0 0 159.05 351.24">
  <defs>
    <style>
      .cls-1 {
        fill: #1d1d1b;
      }

      .cls-1, .cls-2, .cls-3, .cls-4, .cls-5, .cls-6 {
        stroke: #1d1d1b;
        stroke-miterlimit: 10;
      }

      .cls-1, .cls-2, .cls-4, .cls-6 {
        stroke-width: 2px;
      }

      .cls-2, .cls-3 {
        fill: #b2b2b2;
      }

      .cls-3 {
        stroke-width: 2.21px;
      }

      .cls-4 {
        fill: #706f6f;
      }

      .cls-5 {
        fill: #fff;
        stroke-width: 1.87px;
      }

      .cls-6 {
        fill: #f5ea57;
      }
    </style>
  </defs>
  <rect class="cls-3" x="83.41" y="86.7" width="18.52" height="46.93" rx="5.32" ry="5.32"/>
  <rect class="cls-2" x="1" y="110.17" width="133.1" height="234.34" rx="28.93" ry="28.93"/>
  <path class="cls-6" d="M84.91,218.1l-36.32,40.59c-.58.65-.12,1.68.75,1.68h10.04c.68,0,1.17.66.96,1.31l-11.87,38c-.32,1.04.99,1.79,1.72.98l36.32-40.59c.58-.65.12-1.68-.75-1.68h-10.04c-.68,0-1.17-.66-.96-1.31l11.87-38c.32-1.04-.99-1.79-1.72-.98Z"/>
  <rect class="cls-6" x="24.72" y="148.78" width="85.65" height="9.17" rx="3.78" ry="3.78"/>
  <rect class="cls-6" x="24.72" y="130.6" width="85.65" height="9.17" rx="3.78" ry="3.78"/>
  <rect class="cls-6" x="24.72" y="166.95" width="85.65" height="9.17" rx="3.78" ry="3.78"/>
  <rect class="cls-1" x="23.07" y="338.78" width="24.01" height="11.46" rx="4.41" ry="4.41"/>
  <rect class="cls-1" x="84.04" y="338.57" width="24.01" height="11.46" rx="4.41" ry="4.41"/>
  <rect class="cls-4" x="128.3" y="224.58" width="11.59" height="93.55" rx="3.74" ry="3.74"/>
  <path class="cls-5" d="M105.25,57.12c.05-.42.08-.84.08-1.27,0-6.07-4.92-10.99-10.99-10.99s-10.99,4.92-10.99,10.99c0,.07,0,.14.01.21-.69-.14-1.4-.21-2.13-.21-6.07,0-10.99,4.92-10.99,10.99s4.92,10.99,10.99,10.99c3.44,0,6.5-1.58,8.52-4.05,2.98,3.18,8.39,5.31,14.56,5.31,9.39,0,17.01-4.92,17.01-10.99s-7.11-10.66-16.07-10.97Z"/>
  <path class="cls-5" d="M117.33,2.12c-3.91-2.11-8.62-1.31-11.63,1.65-2.83-2.34-6.91-2.86-10.33-.99-4.42,2.42-6.07,7.92-3.77,12.37-.75.41-1.5.85-2.23,1.36-6.84,4.74-9.91,12.14-6.87,16.52s11.05,4.08,17.88-.66c5.06-3.51,8.05-8.47,8.04-12.59,4.73,2.24,10.43.41,12.94-4.25,2.59-4.82.79-10.82-4.02-13.41Z"/>
</svg>