<?xml version="1.0" encoding="UTF-8"?>
<svg id="Laag_1" xmlns="http://www.w3.org/2000/svg" viewBox="0 0 350 167">
  <defs>
    <style>
      .cls-1 {
        fill: #f6ea5b;
      }
    </style>
  </defs>
  <path class="cls-1" d="M0,167h314.67l35.33-58.51V0H0v167Z"/>
  <path d="M26.37,50.02h4.61v33.98h-4.61v-33.98ZM39.73,50.02h6.05l18.72,27.94h.1v-27.94h4.61v33.98h-5.86l-18.91-27.94h-.1v27.94h-4.61v-33.98ZM77.93,50.02h4.61v33.98h-4.61v-33.98ZM98.39,54.34h-10.94v-4.32h26.5v4.32h-10.94v29.66h-4.61v-29.66ZM118.85,50.02h4.61v33.98h-4.61v-33.98ZM142.87,50.02h4.18l14.54,33.98h-5.38l-3.41-8.4h-16.18l-3.36,8.4h-5.38l14.98-33.98ZM151.12,71.57l-6.34-15.6h-.1l-6.43,15.6h12.86ZM168.71,54.34h-10.94v-4.32h26.5v4.32h-10.94v29.66h-4.61v-29.66ZM189.16,50.02h4.61v33.98h-4.61v-33.98ZM202.52,50.02h21.94v4.32h-17.33v10.13h16.13v4.32h-16.13v10.9h18.19v4.32h-22.8v-33.98ZM227.21,50.02h5.33l9.98,27.65h.1l10.37-27.65h5.04l-13.39,33.98h-4.32l-13.1-33.98ZM262.1,50.02h21.94v4.32h-17.33v10.13h16.13v4.32h-16.13v10.9h18.19v4.32h-22.8v-33.98ZM291.45,50.02h6.05l18.72,27.94h.1v-27.94h4.61v33.98h-5.86l-18.91-27.94h-.1v27.94h-4.61v-33.98Z"/>
  <path d="M190.87,118c0-1.11-.9-2-2-2h-18c-1.1,0-2,.89-2,2s.9,2,2,2h16v16c0,1.1.9,2,2,2s2-.9,2-2v-18ZM163.41,146.28l26.87-26.87-2.83-2.83-26.87,26.87,2.83,2.83Z"/>
</svg>