<?xml version="1.0" encoding="UTF-8"?>
<svg id="Laag_1" xmlns="http://www.w3.org/2000/svg" viewBox="0 0 283.46 283.46">
  <defs>
    <style>
      .cls-1 {
        fill: #55baa6;
      }

      .cls-2 {
        fill: none;
        stroke: #000;
        stroke-miterlimit: 10;
        stroke-width: 14px;
      }
    </style>
  </defs>
  <polyline class="cls-1" points="216.31 283.46 0 283.46 0 0 283.46 0 283.46 180.62"/>
  <path class="cls-2" d="M50.05,155.38c1.44-3.75,4.09-8.76,9.3-12.48,4.86-3.47,9.13-3.73,17.54-5.47,16.91-3.51,25.36-5.26,28.83-10.36,4.49-6.61,1.56-17.83-5.29-24.1-9.44-8.64-24.76-6.42-33.76-1.82-17.27,8.83-17.45,31.11-17.54,40.02-.09,8.81-.22,22.4,10.52,30.9,8.57,6.78,19.53,6.65,22.06,6.62,9.79-.12,16.88-3.91,19.84-5.71"/>
  <path class="cls-1" d="M116.3,183.66c2.87-1.99.82-9.13-4.6-15.95s-12.13-10.73-15.01-8.74-.82,9.13,4.6,15.95,12.13,10.73,15.01,8.74Z"/>
  <path class="cls-2" d="M165.06,147.22c1.51,11.04-3.67,21.78-13.22,27.46-11.75,7-25.87,3.86-34.05-1.85-13.55-9.46-12.97-26.29-12.67-33.85.13-3.33,1.41-26.09,19.42-36.65,7.18-4.21,14.13-4.73,15.53-4.82,11.8-.76,20.45,4.78,23.1,6.63"/>
  <path class="cls-1" d="M176.66,93.84c-2.95-1.89-9.51,2.26-14.64,9.27-5.13,7.01-6.89,14.22-3.94,16.1s9.51-2.26,14.64-9.27,6.89-14.22,3.94-16.1Z"/>
  <ellipse class="cls-2" cx="198.73" cy="138.07" rx="34.58" ry="40.63"/>
</svg>