<?xml version="1.0" encoding="UTF-8"?>
<svg id="Laag_1" xmlns="http://www.w3.org/2000/svg" viewBox="0 0 350 167">
  <defs>
    <style>
      .cls-1 {
        fill: #f6ea5a;
      }
    </style>
  </defs>
  <path class="cls-1" d="M0,167h314.67l35.33-58.51V0H0s0,167,0,167Z"/>
  <path d="M104.47,51.34h-10.94v-4.32h26.5v4.32h-10.94v29.66h-4.61v-29.66ZM131.18,47.02h4.18l14.54,33.98h-5.38l-3.41-8.4h-16.18l-3.36,8.4h-5.38l14.98-33.98ZM139.44,68.57l-6.34-15.6h-.1l-6.43,15.6h12.86ZM154.32,47.02h4.61v29.66h15.6v4.32h-20.21v-33.98ZM179.21,47.02h4.61v14.69h.38l15.02-14.69h6.43l-16.42,15.7,17.52,18.29h-6.72l-15.84-16.99h-.38v16.99h-4.61v-33.98ZM211.35,73.9c.83,1.25,1.89,2.18,3.17,2.78,1.31.58,2.66.86,4.03.86.77,0,1.55-.11,2.35-.34.8-.26,1.52-.62,2.16-1.1.67-.48,1.22-1.07,1.63-1.78.42-.7.62-1.52.62-2.45,0-1.31-.42-2.3-1.25-2.98-.83-.7-1.87-1.28-3.12-1.73-1.22-.48-2.56-.93-4.03-1.34-1.44-.45-2.78-1.06-4.03-1.82-1.22-.77-2.24-1.79-3.07-3.07-.83-1.31-1.25-3.07-1.25-5.28,0-.99.21-2.05.62-3.17.45-1.12,1.14-2.14,2.06-3.07.93-.93,2.11-1.7,3.55-2.3,1.47-.64,3.23-.96,5.28-.96,1.86,0,3.63.26,5.33.77,1.7.51,3.18,1.55,4.46,3.12l-3.74,3.41c-.58-.9-1.39-1.62-2.45-2.16-1.06-.54-2.26-.82-3.6-.82s-2.35.18-3.22.53c-.83.32-1.5.75-2.02,1.3-.51.51-.88,1.07-1.1,1.68-.19.61-.29,1.17-.29,1.68,0,1.44.42,2.54,1.25,3.31.83.77,1.86,1.39,3.07,1.87,1.25.48,2.59.91,4.03,1.3,1.47.38,2.82.93,4.03,1.63,1.25.67,2.29,1.6,3.12,2.78.83,1.15,1.25,2.75,1.25,4.8,0,1.63-.32,3.1-.96,4.42-.61,1.31-1.44,2.42-2.5,3.31-1.06.9-2.3,1.58-3.74,2.06-1.44.48-2.98.72-4.61.72-2.18,0-4.24-.38-6.19-1.15-1.95-.77-3.5-1.95-4.66-3.55l3.79-3.26Z"/>
  <path d="M173.59,143.41c.78.78,2.05.78,2.83,0l12.73-12.73c.78-.78.78-2.05,0-2.83s-2.05-.78-2.83,0l-11.31,11.31-11.31-11.31c-.78-.78-2.05-.78-2.83,0s-.78,2.05,0,2.83l12.73,12.73ZM173,104v38h4v-38h-4Z"/>
</svg>