<?xml version="1.0" encoding="UTF-8"?>
<svg id="Laag_1" xmlns="http://www.w3.org/2000/svg" viewBox="0 0 286 137">
  <defs>
    <style>
      .cls-1 {
        fill: #f5ea57;
      }
    </style>
  </defs>
  <path class="cls-1" d="M0,137h257.13l28.87-48V0H0s0,137,0,137Z"/>
  <path d="M122.59,100.59c-.78.78-.78,2.05,0,2.83l12.73,12.73c.78.78,2.05.78,2.83,0s.78-2.05,0-2.83l-11.31-11.31,11.31-11.31c.78-.78.78-2.05,0-2.83-.78-.78-2.05-.78-2.83,0l-12.73,12.73ZM162,100h-38v4h38v-4Z"/>
  <path d="M91.6,33.75h-8.21v-3.24h19.87v3.24h-8.21v22.25h-3.46v-22.25ZM106.95,30.51h16.45v3.24h-13v7.6h12.1v3.24h-12.1v8.17h13.64v3.24h-17.1v-25.49ZM128.96,30.51h8.96c1.63,0,2.98.23,4.03.68,1.06.43,1.88,1,2.48,1.69.62.67,1.06,1.44,1.3,2.3.24.84.36,1.66.36,2.45s-.14,1.61-.43,2.38c-.29.74-.71,1.43-1.26,2.05-.53.6-1.19,1.12-1.98,1.55-.77.41-1.63.66-2.59.76l7.24,11.63h-4.32l-6.48-11.23h-3.85v11.23h-3.46v-25.49ZM132.41,41.74h4.54c.67,0,1.33-.05,1.98-.14.67-.12,1.26-.32,1.76-.61.53-.29.95-.7,1.26-1.22.31-.55.47-1.26.47-2.12s-.16-1.56-.47-2.09c-.31-.55-.73-.97-1.26-1.26-.5-.29-1.09-.48-1.76-.58-.65-.12-1.31-.18-1.98-.18h-4.54v8.21ZM153.95,30.51v15.62c0,.79.11,1.62.32,2.48.22.84.58,1.62,1.08,2.34.5.72,1.16,1.31,1.98,1.76.82.46,1.82.68,3.02.68s2.21-.23,3.02-.68c.82-.46,1.48-1.04,1.98-1.76.5-.72.86-1.5,1.08-2.34.22-.86.32-1.69.32-2.48v-15.62h3.46v16.16c0,1.49-.25,2.84-.76,4.07-.5,1.2-1.2,2.24-2.09,3.13s-1.93,1.57-3.13,2.05-2.5.72-3.89.72-2.69-.24-3.89-.72-2.24-1.16-3.13-2.05-1.58-1.93-2.09-3.13c-.5-1.22-.76-2.58-.76-4.07v-16.16h3.46ZM198.02,41.74v12.56c-.62.38-1.33.72-2.12,1.01-.79.29-1.62.53-2.48.72-.84.22-1.7.37-2.59.47-.86.1-1.68.14-2.45.14-2.16,0-4.09-.36-5.8-1.08-1.68-.72-3.11-1.69-4.28-2.92-1.15-1.22-2.04-2.64-2.66-4.25-.6-1.63-.9-3.35-.9-5.15,0-1.9.32-3.66.97-5.29.67-1.63,1.58-3.05,2.74-4.25,1.18-1.2,2.58-2.14,4.21-2.81,1.63-.7,3.42-1.04,5.36-1.04,2.35,0,4.27.3,5.76.9,1.49.58,2.74,1.38,3.74,2.41l-2.45,2.63c-1.06-1.01-2.17-1.7-3.35-2.09-1.18-.41-2.41-.61-3.71-.61-1.46,0-2.78.28-3.96.83-1.18.53-2.18,1.25-3.02,2.16-.84.91-1.49,1.99-1.94,3.24-.46,1.22-.68,2.53-.68,3.92s.25,2.78.76,4.03c.5,1.22,1.2,2.29,2.09,3.2s1.93,1.63,3.13,2.16c1.2.5,2.51.76,3.92.76,1.22,0,2.38-.11,3.46-.32,1.1-.24,2.04-.58,2.81-1.01v-7.09h-5.65v-3.24h9.11Z"/>
</svg>