<?xml version="1.0" encoding="UTF-8"?>
<svg id="Laag_1" xmlns="http://www.w3.org/2000/svg" viewBox="0 0 350 167">
  <defs>
    <style>
      .cls-1 {
        fill: #55baa6;
      }
    </style>
  </defs>
  <path class="cls-1" d="M0,167h314.67l35.33-58.51V0H0s0,167,0,167Z"/>
  <path d="M91.47,51.34h-10.94v-4.32h26.5v4.32h-10.94v29.66h-4.61v-29.66ZM111.93,47.02h4.61v33.98h-4.61v-33.98ZM148.95,54.36c-.96-1.25-2.18-2.21-3.65-2.88s-2.99-1.01-4.56-1.01c-1.92,0-3.66.37-5.23,1.1-1.54.7-2.86,1.68-3.98,2.93-1.09,1.25-1.94,2.72-2.54,4.42-.61,1.66-.91,3.46-.91,5.38,0,1.79.29,3.49.86,5.09.58,1.6,1.41,3.01,2.5,4.22,1.09,1.22,2.42,2.18,3.98,2.88s3.34,1.06,5.33,1.06,3.66-.4,5.14-1.2c1.47-.8,2.72-1.92,3.74-3.36l3.89,2.93c-.26.35-.7.86-1.34,1.54-.64.64-1.49,1.3-2.54,1.97-1.06.64-2.34,1.2-3.84,1.68-1.47.51-3.18.77-5.14.77-2.69,0-5.12-.51-7.3-1.54-2.14-1.02-3.98-2.37-5.52-4.03-1.5-1.66-2.66-3.54-3.46-5.62-.8-2.11-1.2-4.24-1.2-6.38,0-2.62.43-5.04,1.3-7.25.86-2.24,2.06-4.16,3.6-5.76,1.57-1.63,3.44-2.9,5.62-3.79s4.58-1.34,7.2-1.34c2.24,0,4.43.43,6.58,1.3,2.18.86,3.95,2.19,5.33,3.98l-3.84,2.93ZM159.09,47.02h4.61v14.69h.38l15.02-14.69h6.43l-16.42,15.7,17.52,18.29h-6.72l-15.84-16.99h-.38v16.99h-4.61v-33.98ZM190.21,47.02h21.94v4.32h-17.33v10.13h16.13v4.32h-16.13v10.9h18.19v4.32h-22.8v-33.98ZM226.66,51.34h-10.94v-4.32h26.5v4.32h-10.94v29.66h-4.61v-29.66ZM248.13,73.9c.83,1.25,1.89,2.18,3.17,2.78,1.31.58,2.66.86,4.03.86.77,0,1.55-.11,2.35-.34.8-.26,1.52-.62,2.16-1.1.67-.48,1.22-1.07,1.63-1.78.42-.7.62-1.52.62-2.45,0-1.31-.42-2.3-1.25-2.98-.83-.7-1.87-1.28-3.12-1.73-1.22-.48-2.56-.93-4.03-1.34-1.44-.45-2.78-1.06-4.03-1.82-1.22-.77-2.24-1.79-3.07-3.07-.83-1.31-1.25-3.07-1.25-5.28,0-.99.21-2.05.62-3.17.45-1.12,1.14-2.14,2.06-3.07s2.11-1.7,3.55-2.3c1.47-.64,3.23-.96,5.28-.96,1.86,0,3.63.26,5.33.77,1.7.51,3.18,1.55,4.46,3.12l-3.74,3.41c-.58-.9-1.39-1.62-2.45-2.16-1.06-.54-2.26-.82-3.6-.82s-2.35.18-3.22.53c-.83.32-1.5.75-2.02,1.3-.51.51-.88,1.07-1.1,1.68-.19.61-.29,1.17-.29,1.68,0,1.44.42,2.54,1.25,3.31.83.77,1.86,1.39,3.07,1.87,1.25.48,2.59.91,4.03,1.3,1.47.38,2.82.93,4.03,1.63,1.25.67,2.29,1.6,3.12,2.78.83,1.15,1.25,2.75,1.25,4.8,0,1.63-.32,3.1-.96,4.42-.61,1.31-1.44,2.42-2.5,3.31-1.06.9-2.3,1.58-3.74,2.06-1.44.48-2.98.72-4.61.72-2.18,0-4.24-.38-6.19-1.15-1.95-.77-3.5-1.95-4.66-3.55l3.79-3.26Z"/>
  <path d="M190.44,109.57c0-1.11-.9-2-2-2h-18c-1.1,0-2,.89-2,2s.9,2,2,2h16v16c0,1.1.9,2,2,2s2-.9,2-2v-18ZM162.98,137.85l26.87-26.87-2.83-2.83-26.87,26.87,2.83,2.83Z"/>
</svg>