<?xml version="1.0" encoding="UTF-8"?>
<svg id="Laag_1" xmlns="http://www.w3.org/2000/svg" viewBox="0 0 470.18 678.21">
  <defs>
    <style>
      .cls-1 {
        stroke-width: 10.05px;
      }

      .cls-1, .cls-2 {
        fill: #f5ea57;
      }

      .cls-1, .cls-2, .cls-3, .cls-4, .cls-5, .cls-6, .cls-7, .cls-8, .cls-9, .cls-10, .cls-11, .cls-12, .cls-13 {
        stroke: #1d1d1b;
        stroke-miterlimit: 10;
      }

      .cls-2 {
        stroke-width: 6.63px;
      }

      .cls-3, .cls-4, .cls-5, .cls-8 {
        stroke-width: 7px;
      }

      .cls-3, .cls-14 {
        fill: #e30613;
      }

      .cls-4 {
        fill: #432918;
      }

      .cls-5 {
        fill: #009640;
      }

      .cls-6 {
        fill: none;
        stroke-width: 10.11px;
      }

      .cls-7 {
        fill: #cbbba0;
      }

      .cls-8 {
        fill: #e9a765;
      }

      .cls-9 {
        fill: #f39200;
        stroke-width: 9.86px;
      }

      .cls-10 {
        stroke-width: 3.29px;
      }

      .cls-10, .cls-11, .cls-12, .cls-13 {
        fill: #e6332a;
      }

      .cls-11 {
        stroke-width: 2.85px;
      }

      .cls-12 {
        stroke-width: 2.8px;
      }

      .cls-13 {
        stroke-width: 2.8px;
      }
    </style>
  </defs>
  <path class="cls-1" d="M453.95,377.99c-46.65-.3-84.82-.16-110.71.02-178.17,1.23-267.26,1.85-282.41,3.14-10.98.93-54.66,4.92-55.78-.39-.05-.26,0-.54.17-.85,16.14-29.75,35.32-60.16,56.01-90.9C123.3,196.79,199.02,101.61,247.45,12.36"/>
  <path class="cls-14" d="M216.53,68.31c4.99,11.94,11.41,22.98,19.51,33.09,8.69,10.85,19.11,19.46,30.26,27.65,11.92,8.75,21.33,19.16,30.76,30.46,5.09,6.1,10.17,12.2,15.26,18.3,2.2,2.64,4.68,6.8,7.49,8.77,2.66,1.87,6.32.69,9.33,2.05,3.4,1.53,9.01-1.12,7.24-5.57-3.09-7.75-6.17-15.5-9.26-23.25-2.48-6.22-4.34-14.91-9.53-19.53-2.31-2.06-5.18-2.96-8.04-3.96-4.01-1.39-7.47-3.16-10.98-5.57-5.91-4.06-11.54-8.72-16.99-13.36-11.47-9.77-20.27-20.61-24.92-35.11-4.94-15.4-8.37-31.37-12.41-47.02-1.33-5.15-7.79-4.18-9.5,0-3.9,9.53-9.2,18.5-15.64,26.53-3.88,4.84,2.7,11.8,6.97,6.97,3.64-4.12,7.74-7.24,12.67-9.67l-7.24-5.57c-2.2,5.44-4.01,10.97-5.44,16.66s6.05,8.59,9.01,3.8,7.14-8.39,12.37-10.85l-7.24-5.57c-3.02,7.5-6.04,15-9.07,22.49-2.07,5.14,6.67,8.86,9.01,3.8,2.15-4.68,2.72-9.05,1.72-14.12-.74-3.75-5.74-4.6-8.24-2.17-5.28,5.14-5.59,14.14-.28,19.46,6.81,6.82,15.29-.99,15.71-8.69.16-2.94-3.32-5.93-6.24-4.75-4.44,1.79-7.54,4.72-8.55,9.54-.82,3.9,3.43,8.11,7.24,5.57,2.92-1.95,5.43-4.1,7.65-6.83,3.19-3.93-1.15-11.43-5.97-7.74-16.16,12.39,2.28,30.91,10.66,41.71,3.11,4,9.58-.36,8.24-4.79-3.29-10.88-6.58-21.77-9.87-32.65-1.84-6.08-10.9-3.57-9.5,2.62,2.42,10.72,6.11,21.1,11.06,30.91,2.31,4.57,4.78,9.34,8.41,13.02s8.32,5.7,12.64,8.38c15.91,9.85,23.67,28.58,40.01,38.15,3.47,2.03,8.79-1.4,7.24-5.57-3.93-10.58-8.8-20.71-14.72-30.32-1.39-2.26-4.4-3.15-6.74-1.77-6.39,3.78-7.63,12.78-2.09,17.92,4.64,4.31,11.63-2.64,6.97-6.97-.87-.8-1.04-1.77.1-2.44l-6.74-1.77c5.48,8.88,10.1,18.19,13.73,27.97l7.24-5.57c-14.93-8.74-22.66-25.45-36.41-35.68-3.61-2.69-7.73-4.48-11.44-7.01-4.22-2.88-6.56-7.33-8.88-11.76-4.98-9.52-8.5-19.65-10.87-30.12l-9.5,2.62c3.29,10.88,6.58,21.77,9.87,32.65l8.24-4.79c-3.54-4.55-7.26-9.01-10.58-13.73-2.02-2.87-6.12-9.41-2.07-12.5l-5.97-7.74c-1.67,2.06-3.44,3.81-5.65,5.29l7.24,5.57c0-1.22.55-2.11,1.67-2.66l-6.24-4.75c-.04,1.16-.64,1.76-1.81,1.81l3.8.5c-2.28-1.38-2.43-4.32-.59-6.11l-8.24-2.17c.45,2.29.25,4.39-.73,6.53l9.01,3.8c3.02-7.5,6.04-15,9.07-22.49,1.78-4.41-3.82-7.18-7.24-5.57-6.71,3.16-12.02,8.1-15.9,14.39l9.01,3.8c1.43-5.69,3.24-11.22,5.44-16.66,1.76-4.36-3.82-7.25-7.24-5.57-5.61,2.76-10.52,6.53-14.66,11.21l6.97,6.97c7.59-9.46,13.58-19.66,18.18-30.88h-9.5c4.04,15.65,7.46,31.63,12.41,47.02,4.43,13.75,11.89,25.17,22.44,35.01,5.11,4.76,10.6,9.1,16.1,13.4,5.64,4.41,11.31,8.83,18.06,11.43,3.53,1.36,6.76,1.74,8.84,5.24,2.18,3.68,3.44,8.47,5.03,12.45,3.09,7.75,6.17,15.5,9.26,23.25l7.24-5.57c-3.69-1.66-7.25-2.54-11.32-2.34l3.48,1.44c-16.98-20.37-32.75-42.29-54.26-58.15-19.99-14.73-36.3-32.21-45.99-55.39-2.41-5.77-11.95-3.23-9.5,2.62h0Z"/>
  <path class="cls-14" d="M376.27,289.91c-2.06-3.58-4.13-7.17-6.19-10.75-2.7-4.69-11.06-1.55-9.01,3.8s3.39,10.67,3.89,16.31l9.18-2.49c-7.36-17.29-6.94-36.6-11.46-54.62-2.32-9.27-6.26-17.9-10.83-26.27-4.13-7.56-8.27-15.32-13.74-22.02-5.88-7.2-13.51-10.34-20.91-15.53-6.87-4.82-11.44-12.06-15.62-19.17-9.14-15.55-18.74-29.75-32.6-41.56-4.77-4.07-11.69,2.64-6.97,6.97,16.13,14.78,26.98,33.75,37.2,52.84,2.36,4.4,4.68,8.83,7.06,13.22,2.1,3.87,4.42,7.92,8.63,9.75s8.68-.87,12.35,2.68c3.92,3.78,6.75,9.32,9.66,13.89,6.1,9.6,11.65,19.74,13.89,31.01,2.38,11.93-.4,24.2.15,36.25s2.64,23.75,4.94,35.36c2.17,10.95,6.29,20.02,13.1,28.86,6.41,8.32,11.22,20.39,21.27,24.93,10.32,4.67,21.88.44,32.34,4.14,4.59,1.62,8.44-5.05,4.79-8.24-9.09-7.95-18.57-15.41-28.41-22.4-3.85-2.73-7.93,1.77-7.24,5.57,1.17,6.39,2.82,12.62,4.97,18.75,1.87,5.31,9.25,4.3,9.68-1.31.24-3.11.47-6.23.71-9.34l-7.42,4.26-.4-.92,6.74-1.77c-3.62-2.67-8.92-3.66-11.83.6-2.14,3.14-1.28,8,2.32,9.57,3.9,1.69,10.06-2.28,6.74-6.74-3.58-4.82-7.6-8.77-12.51-12.23-2.84-2-7.9.62-7.42,4.26.54,4.09,1.42,8.54,5.34,10.77,3.3,1.88,7.74,1.43,10.28-1.43,6.38-7.21-2.92-17.45-10.16-18.85-4.8-.93-8.24,4.47-4.79,8.24,4.62,5.05,11.88,2.53,14.2-3.26.97-2.42-1.07-5.5-3.44-6.06s-4.81-.83-7.34-.53c.83,3.06,1.66,6.12,2.49,9.18,1.92-1.15,3.84-2.29,5.75-3.44,3.99-2.38,2.56-9.54-2.49-9.18-3.21.23-6.27.75-9.34,1.75,1.27,3,2.53,6,3.8,9.01,1.87-1.05,3.39-2.24,4.82-3.83,2.73-3.03.99-8.55-3.48-8.41l-7.08.22,3.48,8.41c2.2-2.18,4.07-4.56,5.7-7.2,1.86-3.02-.51-7.7-4.26-7.42-1.83.14-3.65.28-5.48.41l3.48,8.41c1.32-1.06,2.69-1.56,4.3-1.99l-6.24-4.75c-.19,3.21-2.01,5.24-4.82,6.6l6.74,6.74c2.84-4.38,4.97-9.06,6.48-14.05.86-2.82-1.57-6.57-4.75-6.24-2.55.26-5.09.53-7.64.79l3.48,8.41c2.35-1.89,4.12-4.11,5.49-6.8,1.5-2.92-.26-7.95-4.26-7.42-5.86.78-10.19,3.93-11.91,9.73-1.31,4.43,3.55,7.29,7.24,5.57,3.97-1.86,7.02-4.93,8.81-8.93,1.49-3.33-.23-7.37-4.26-7.42s-7.32,1.3-10.49,3.92c2.32,2.32,4.65,4.65,6.97,6.97,1.88-1.57,3.27-3.34,4.38-5.52,1.84-3.62-1.23-8.61-5.57-7.24-4.98,1.58-8.28,4.88-9.84,9.87h9.5c-4.78-13.47-9.53-27.09-9.49-41.55l-9.68,1.31c5,12.71,10,25.41,15,38.12,2.07,5.26,9.06,4.32,9.68-1.31,1.86-16.88,4.64-34.48,3.85-51.49-.64-13.9-5.33-27.35-17.09-35.56-2.83-1.98-6.21.22-7.24,2.95-3.74,9.89-.84,20.62.92,30.64,1.98,11.31,3.96,22.61,5.94,33.92.83,4.72,8.65,4.69,9.5,0,2.19-11.99,4.42-24.29,3-36.5-1.31-11.24-6.07-20.64-12.22-29.97s-11.35-17.3-12.84-28.18c-1.65-12.11-9.49-22.12-15.69-32.36-2.04-3.36-8.21-3.17-9.01,1.18-.27,1.48-.54,2.96-.81,4.43l6.06-3.44c-9.71-3.53-19.76-4.19-29.91-2.47-2.28.39-3.4,2.73-3.62,4.75-.63,5.75,3.89,10.62,9.38,11.64,6.05,1.12,12.44-2.75,16.1-7.33,3.98-4.99,3.71-11.11-.53-15.83-5.15-5.73-12.39-10.24-18.4-15.04-4.91-3.92-11.93,3.01-6.97,6.97,5.46,4.36,11.17,8.53,16.42,13.13,2.57,2.26,3.25,3.5.39,6.05-1.37,1.23-6.95,4.4-6.52.41l-3.62,4.75c8.42-1.43,16.68-.43,24.67,2.47,2.35.85,5.61-.97,6.06-3.44.27-1.48.54-2.96.81-4.43l-9.01,1.18c3.03,5.01,6.06,10.01,9.08,15.02s4.83,9.61,5.68,15.62c1.37,9.7,5.88,17.93,11.19,26.02,5.52,8.4,11.21,16.57,13.08,26.66,2.21,11.94-.12,24.33-2.28,36.1h9.5c-1.76-10.05-3.52-20.1-5.28-30.15-1.64-9.34-5.06-19.93-1.58-29.17l-7.24,2.95c11.04,7.7,12.64,22.24,12.21,34.62-.5,14.66-2.25,29.36-3.85,43.93,3.23-.44,6.45-.87,9.68-1.31-5-12.71-10-25.41-15-38.12-1.93-4.91-9.66-4.62-9.68,1.31-.04,15.36,4.76,29.85,9.84,44.17,1.61,4.54,8,4.81,9.5,0,.51-1.62,1.34-2.47,2.96-2.98l-5.57-7.24c-.78,1.53-1.52,2.43-2.84,3.53-4.89,4.06,2.12,10.98,6.97,6.97,1.02-.9,2.2-1.25,3.53-1.04l-4.26-7.42c-1.21,2.7-2.62,4.15-5.27,5.39l7.24,5.57c.34-1.14,1.07-2.32,2.4-2.5l-4.26-7.42c-1.03,2.01-2.2,3.39-3.95,4.8-3.22,2.59-.64,8.84,3.48,8.41,2.55-.26,5.09-.53,7.64-.79l-4.75-6.24c-1.29,4.24-3.08,7.98-5.49,11.7-2.88,4.45,2.62,8.74,6.74,6.74,6-2.91,9.31-8.55,9.7-15.11.19-3.26-3.3-5.52-6.24-4.75-3.36.88-5.95,2.36-8.65,4.52-3.29,2.63-.6,8.72,3.48,8.41,1.83-.14,3.65-.28,5.48-.41l-4.26-7.42c-1.2,1.95-2.53,3.6-4.16,5.21-2.97,2.94-.82,8.55,3.48,8.41l7.08-.22-3.48-8.41c-.72,1.03-1.66,1.79-2.83,2.29-4.79,2.69-1.59,10.77,3.8,9.01,2.23-.73,4.37-1.23,6.72-1.4-.83-3.06-1.66-6.12-2.49-9.18-1.92,1.15-3.84,2.29-5.75,3.44-3.88,2.32-2.61,9.78,2.49,9.18,1.74-.21,2.99-.24,4.72.18l-3.44-6.06,2.27-1.09c-1.6,2.75-3.2,5.49-4.79,8.24,2.31.45,2.63,1.72,4.31,2.75.47,1.47,1.58,1.35,3.33-.35-.32-.77-.53-1.57-.62-2.4l-7.42,4.26c3.44,2.42,6.46,5.31,8.97,8.69l6.74-6.74c-2.98,3.23-3.13,5.51-.44,6.85,2.08,1.54,5.6.4,6.74-1.77,2.52-4.77,1.16-9.47-3.14-12.56-3.29-2.37-7.16.9-7.42,4.26-.24,3.11-.47,6.23-.71,9.34l9.68-1.31c-2.15-6.13-3.81-12.36-4.97-18.75l-7.24,5.57c9.16,6.51,17.96,13.46,26.41,20.86,1.6-2.75,3.2-5.49,4.79-8.24-9.3-3.29-19.1-.25-28.41-2.72s-13.45-14.25-18.77-21.13c-3.23-4.18-6.5-8.36-8.65-13.22-2.43-5.51-3.59-11.56-4.65-17.45-2.19-12.2-4.35-24.51-4.01-36.95.31-11.09,1.72-21.89-.79-32.85-2.41-10.53-7.48-20.34-13.13-29.46-4.55-7.36-9.83-18.52-18.25-22.08-2.33-.99-4.32-1.1-6.81-.95-2.78.17-3.53.2-5.19-2.33-2.77-4.23-4.9-9.01-7.27-13.46-11.08-20.79-22.75-41.69-40.31-57.78l-6.97,6.97c7.12,6.07,13.66,12.83,19.18,20.4,5.06,6.93,9,14.52,13.46,21.83,3.89,6.39,8.31,12.67,14.13,17.45,6.91,5.68,15.43,8.45,21.36,15.39s9.92,15.1,14.08,22.86c4.39,8.19,7.75,16.56,9.74,25.65,3.94,18,4.36,36.43,11.67,53.6,1.9,4.47,9.6,2.22,9.18-2.49-.57-6.54-1.89-12.79-4.24-18.93l-9.01,3.8c2.06,3.58,4.13,7.17,6.19,10.75,3.16,5.5,11.68.54,8.51-4.97h0Z"/>
  <path class="cls-9" d="M392.33,157.12C344.72,73.53,273.14-5.32,252.43,6.02c-12.97,7.1-4.07,55.06,12.67,85.79,5.99,10.99,12.2,22.39,25.14,31.87,16.24,11.91,26.02,8.29,34.22,20.2,7.96,11.56,2.2,19.98,12.55,34.42,6.3,8.79,8.98,6.43,14.88,14.55,11.17,15.37,3.31,26.27,12.42,43.38,7.89,14.82,16.32,11.4,22.87,24.4,9.01,17.91-3.06,32.15-1.94,50.63,2.23,36.86,56.81,74.09,73.23,64.1,23.52-14.3-17.89-133.53-66.14-218.25Z"/>
  <path class="cls-6" d="M399.77,378.64c-18.17-12.68-39.76-32.59-44.72-60.75-1.78-10.09.56-10.01-.22-28.43-1.05-24.67-2.58-60.89-24.84-83.35-10.15-10.24-15.05-7.98-24.09-19.91-10.5-13.85-8.17-22.53-16.52-36.29-9.18-15.13-19.75-17.4-34.98-29.03-12.6-9.62-28.57-25.77-41.79-54.14"/>
  <circle class="cls-10" cx="290.82" cy="260.73" r="36.18"/>
  <circle class="cls-12" cx="250.07" cy="337.74" r="30.89"/>
  <circle class="cls-11" cx="222.35" cy="169.98" r="31.41"/>
  <circle class="cls-13" cx="197.13" cy="397.46" r="30.89"/>
  <circle class="cls-10" cx="166.4" cy="274.63" r="36.18"/>
  <circle class="cls-11" cx="77.12" cy="337.74" r="31.41"/>
  <rect class="cls-8" x="4.84" y="594.17" width="429.69" height="80.54" rx="23.92" ry="23.92"/>
  <path class="cls-5" d="M420.49,615.29c-3.39,4.86-7.01,7.28-10.12,8.55-5.6,2.29-9.14.68-16.89,2.21-6.47,1.28-10.25,4.19-13.01,4.87-8.49,2.09-15.17.67-51.72-2.93-27-2.66-39.38-3.47-54.04-3.36-18.12.13-25.98,1.56-31.09,3.67-1.71.7-2.96,1.42-3.93,2.1-2.81,1.95-3.31,2.99-4.54,3.46-3.3,1.25-7.87-3.91-10.73-6.5-7.55-6.85-17.56-8.86-22.36-9.13-14.22-.78-30.83,11.17-39.12,10.68-1.41-.08-2.9-.24-2.9-.24-3.3-.35-6.24-.92-8.95-1.59-13.72-3.43-56.61-18.49-64.49-7.93-1.55,2.08-1.74,5.16-5.43,8.09-1.11.89-3.38,2.43-7.27,3.19-11.26,2.23-15.98-6.01-26.09-4.44-7.42,1.15-8.27,6.11-13.78,5.83-7.1-.36-12.52-8.97-16.15-16.78-2.96-7.26-5.92-14.51-8.89-21.77,140.45,1.95,280.9,3.9,421.36,5.85-3.29,5.39-6.59,10.77-9.88,16.16Z"/>
  <rect class="cls-4" x="4.84" y="539.37" width="429.69" height="67.68" rx="21.93" ry="21.93"/>
  <path class="cls-2" d="M420.59,541.47l-151.77,6.76c-4.42.2-6.55-4.51-3.16-6.98h0c3.39-2.47,1.26-7.18-3.16-6.98l-246.81,11c-4.42.2-6.12,5.07-2.52,7.24l109.64,65.85c12.09,7.26,28.11,6.55,39.51-1.76l48.46-35.33c11.39-8.31,27.42-9.02,39.51-1.76l51.41,30.88c12.09,7.26,28.11,6.55,39.51-1.76l82.53-60.17c3.39-2.47,1.26-7.18-3.16-6.98Z"/>
  <path class="cls-3" d="M375.93,559.18c-36.5,3.69-64.67,2.66-69.27,2.47-44.82-1.81-46.01-3.79-76.69-4.95-52.78-1.99-102.34,1.88-109.67,2.47-10.52.85-32.18,2.8-61.85,2.47-10.85-.12-19.75-.51-25.56-.82-4.06-.98-11.95-3.56-17.67-10.71-8.88-11.09-8.88-28.57.41-43.52,137.08.89,274.15,1.78,411.23,2.67,2.97,7.87,7,22.3.2,33.42-4.78,7.82-14.17,12.75-51.13,16.49Z"/>
  <path class="cls-5" d="M419.16,509.27c-3.26,1.31-7.99,3.43-13.32,6.66-14.23,8.63-16.54,15.38-23.79,19.68-8.49,5.05-15.17,1.63-51.72-7.1-27-6.45-39.38-8.4-54.04-8.14-18.12.32-25.98,3.79-31.09,8.88-6.8,6.78-6.23,13.93-10.81,14.78-9.22,1.73-14.29-26.68-29.9-28.85-13.51-1.87-21.49,17.77-39.97,15.54-4.27-.51-5.21-1.73-11.84-4.44-7.43-3.04-39.7-16.23-62.92-4.44-11.92,6.05-10.17,12.96-22.83,17.35-13.29,4.6-25.94.71-31.3-1.43-19.57-7.79-26.91-25.87-28.2-29.24,1.06-21.35,2.11-42.71,3.17-64.06,140.45,4.72,280.9,9.44,421.36,14.16l-12.79,50.65Z"/>
  <path class="cls-8" d="M427.35,480.7c-16.56,21.43-52.66,17.08-205.25,17.15-155.83.08-191.53,4.66-209.03-17.15-24.51-30.54,11.24-82.19,35.31-106.22,56.48-56.39,146.74-58.67,171.83-58.39,18.15.2,109.51,2.92,168.34,60.7,21.66,21.28,62.53,73.22,38.8,103.92Z"/>
  <ellipse class="cls-7" cx="59.34" cy="425.24" rx="10.78" ry="3.59"/>
  <ellipse class="cls-7" cx="172.68" cy="407.18" rx="10.78" ry="3.59" transform="translate(-192.79 158.09) rotate(-32.74)"/>
  <ellipse class="cls-7" cx="199.63" cy="468.5" rx="3.59" ry="10.78" transform="translate(-298.31 361.7) rotate(-54.82)"/>
  <ellipse class="cls-7" cx="122.52" cy="461.63" rx="3.59" ry="10.78" transform="translate(-290.54 221.84) rotate(-45)"/>
  <ellipse class="cls-7" cx="114.48" cy="376.77" rx="3.59" ry="10.78" transform="translate(-274.94 435.21) rotate(-81.63)"/>
  <ellipse class="cls-7" cx="257.1" cy="358.93" rx="10.78" ry="3.59" transform="translate(-153.28 196.08) rotate(-32.74)"/>
  <ellipse class="cls-7" cx="274.94" cy="413.97" rx="10.78" ry="3.59" transform="translate(-180.21 214.48) rotate(-32.74)"/>
  <ellipse class="cls-7" cx="172.68" cy="352.36" rx="10.78" ry="3.59" transform="translate(-163.14 149.38) rotate(-32.74)"/>
  <ellipse class="cls-7" cx="330.84" cy="380.37" rx="10.78" ry="3.59"/>
  <ellipse class="cls-7" cx="287.43" cy="463.57" rx="10.78" ry="3.59"/>
  <ellipse class="cls-7" cx="375.24" cy="461.63" rx="3.59" ry="10.78" transform="translate(-218.27 502.31) rotate(-54.82)"/>
</svg>